<svg id="visual" viewBox="0 0 900 600" width="900" height="600" xmlns="http://www.w3.org/2000/svg" xmlns:xlink="http://www.w3.org/1999/xlink" version="1.1"><rect width="900" height="600" fill="#826293"></rect><g><g transform="translate(475 203)"><path d="M0 -147L114.9 -91.7L143.3 32.7L63.8 132.4L-63.8 132.4L-143.3 32.7L-114.9 -91.7Z" fill="none" stroke="#110f12" stroke-width="2"></path></g><g transform="translate(117 596)"><path d="M0 -124L96.9 -77.3L120.9 27.6L53.8 111.7L-53.8 111.7L-120.9 27.6L-96.9 -77.3Z" fill="none" stroke="#110f12" stroke-width="2"></path></g><g transform="translate(605 591)"><path d="M0 -92L71.9 -57.4L89.7 20.5L39.9 82.9L-39.9 82.9L-89.7 20.5L-71.9 -57.4Z" fill="none" stroke="#110f12" stroke-width="2"></path></g><g transform="translate(170 47)"><path d="M0 -131L102.4 -81.7L127.7 29.2L56.8 118L-56.8 118L-127.7 29.2L-102.4 -81.7Z" fill="none" stroke="#110f12" stroke-width="2"></path></g></g></svg>