<svg id="visual" viewBox="0 0 900 600" width="900" height="600" xmlns="http://www.w3.org/2000/svg" xmlns:xlink="http://www.w3.org/1999/xlink" version="1.1"><rect x="0" y="0" width="900" height="600" fill="#110f12"></rect><path d="M503 600L579 600L579 514L557 514L557 429L614 429L614 343L410 343L410 257L633 257L633 171L541 171L541 86L620 86L620 0L900 0L900 86L900 86L900 171L900 171L900 257L900 257L900 343L900 343L900 429L900 429L900 514L900 514L900 600L900 600Z" fill="#ab7fca"></path><path d="M725 600L650 600L650 514L750 514L750 429L762 429L762 343L717 343L717 257L609 257L609 171L699 171L699 86L777 86L777 0L900 0L900 86L900 86L900 171L900 171L900 257L900 257L900 343L900 343L900 429L900 429L900 514L900 514L900 600L900 600Z" fill="#613783"></path></svg>