<svg id="visual" viewBox="0 0 900 600" width="900" height="600" xmlns="http://www.w3.org/2000/svg" xmlns:xlink="http://www.w3.org/1999/xlink" version="1.1"><rect x="0" y="0" width="900" height="600" fill="#110f12"></rect><defs><linearGradient id="grad1_0" x1="33.3%" y1="0%" x2="100%" y2="100%"><stop offset="20%" stop-color="#110f12" stop-opacity="1"></stop><stop offset="80%" stop-color="#110f12" stop-opacity="1"></stop></linearGradient></defs><defs><linearGradient id="grad2_0" x1="0%" y1="0%" x2="66.7%" y2="100%"><stop offset="20%" stop-color="#110f12" stop-opacity="1"></stop><stop offset="80%" stop-color="#110f12" stop-opacity="1"></stop></linearGradient></defs><g transform="translate(900, 0)"><path d="M0 486.7C-57.7 466.4 -115.4 446 -176.4 425.9C-237.5 405.9 -301.9 386.2 -344.2 344.2C-386.5 302.2 -406.8 237.9 -426.8 176.8C-446.9 115.7 -466.8 57.9 -486.7 0L0 0Z" fill="#402552"></path></g><g transform="translate(0, 600)"><path d="M0 -486.7C67.2 -476.5 134.4 -466.3 177.9 -429.6C221.5 -392.9 241.6 -329.8 289.2 -289.2C336.9 -248.7 412.2 -230.7 449.7 -186.3C487.2 -141.8 487 -70.9 486.7 0L0 0Z" fill="#402552"></path></g></svg>